<?xml version="1.0"?>
<svg xmlns="http://www.w3.org/2000/svg" xmlns:xlink="http://www.w3.org/1999/xlink" version="1.1" id="Layer_1" x="0px" y="0px" viewBox="0 0 496 496" style="enable-background:new 0 0 496 496;" xml:space="preserve" width="512px" height="512px" class=""><g><circle style="fill:#1273EB" cx="248" cy="264" r="72" data-original="#FFA64D" class="active-path" data-old_color="#FFA64D"/><g>
	<path style="fill:#ee9e9" d="M248,96c26.472,0,48-21.528,48-48S274.472,0,248,0s-48,21.528-48,48S221.528,96,248,96z M248,16   c17.648,0,32,14.352,32,32s-14.352,32-32,32s-32-14.352-32-32S230.352,16,248,16z" data-original="#3F3A34" class="" data-old_color="#3F3A34"/>
	<path style="fill:#000000" d="M487.16,340.424c-4.688-9.368-7.16-19.848-7.16-30.312V304c0-26.472-21.528-48-48-48h-32   c-0.968,0-1.92,0.08-2.872,0.136C409.12,240.32,416,220.736,416,200v-8v-86.952l-27.4,18.264c-3.056-11.952-4.6-24.224-4.6-36.608   V45.576l-24.872,37.312C349.312,70.072,344,54.472,344,38.056V13.128l-15.984,15.464C312.848,43.28,304.096,62.96,304,82.992   c0,25.856,11.256,50.336,30.888,67.16l3.608,3.096c13.232,11.344,20.928,27.688,21.408,45.048l-14.624,29.256   C330.464,188.16,292.512,160,248,160s-82.464,28.16-97.28,67.552l-14.624-29.256c0.48-17.36,8.176-33.704,21.416-45.048l3.6-3.088   C180.744,133.336,192,108.848,192,82.584c-0.096-19.624-8.848-39.304-24.024-54L152,13.128v24.936   c0,16.416-5.312,32.008-15.128,44.832L112,45.576v41.128c0,12.384-1.544,24.664-4.6,36.616L80,105.048V192v8   c0,20.736,6.88,40.32,18.872,56.136C97.92,256.08,96.968,256,96,256H64c-26.472,0-48,21.528-48,48v6.112   c0,10.464-2.472,20.944-7.16,30.312L3.056,352H32v68.88l14.856-24.768c14.488-24.144,22.944-51.376,24.752-79.368l48.52,24.264   C120.112,342.016,120,343,120,344c0,4.096,0.24,8.128,0.616,12.128L114.424,352H104h-8h-1.296l-31.936,10.648l1.384,6.928   c4.984,24.92,3.928,51.008-3.056,75.456l-9.272,32.464l15.144-6.056c23.032-9.216,39.056-29.232,43.584-52.896   c11.152,9.592,24.576,16.264,38.952,19.392C167.576,473.072,204.256,496,244.352,496h7.296c40.096,0,76.776-22.928,94.84-58.08   c14.376-3.12,27.8-9.792,38.952-19.392c4.536,23.664,20.56,43.68,43.584,52.896l15.144,6.056l-9.272-32.464   c-6.984-24.44-8.04-50.536-3.056-75.456l1.384-6.928L401.296,352H400h-8h-10.424l-6.192,4.128c0.376-4,0.616-8.032,0.616-12.128   c0-1-0.112-1.984-0.136-2.984l48.52-24.264c1.816,27.992,10.264,55.216,24.752,79.368L464,420.88V352h28.944L487.16,340.424z    M348.912,141.104l-3.608-3.096C329.224,124.224,320,104.176,320,82.664c0.048-10.416,3.28-20.912,9.136-30.24   c2.96,18.568,11.656,35.68,25.208,49.232l6.896,6.904l7.136-10.704c0.944,13.832,3.632,27.464,8.032,40.672l3.312,9.944   l20.28-13.52V192h-24.432C373.536,172.336,364.088,154.112,348.912,141.104z M372.944,208h26.64   c-2.864,27.544-20.36,51.632-46.208,62.704l-0.44,0.184c-0.32-0.456-0.608-0.936-0.936-1.392V264c0-4.224-0.328-8.368-0.824-12.464   L372.944,208z M248,176c45.832,0,83.584,35.208,87.64,80H320v16h13.656C350.616,292.16,360,317.544,360,344   c0,46.384-28.344,86.264-68.624,103.248C268.608,418.312,256,382.416,256,345.52v-14.208l7.024-7.024   c14.2-14.2,22.76-32.536,24.584-52.288H304v-16H160.36C164.416,211.208,202.168,176,248,176z M213.64,434.864   c-2.768,4.28-5.808,8.4-8.96,12.4C164.376,430.296,136,390.408,136,344c0-26.448,9.384-51.84,26.344-72h46.04   c1.824,19.752,10.376,38.088,24.584,52.288l7.032,7.024v14.208c0,27.44-6.944,54.68-20.08,78.776l14.048,7.656   c5.856-10.744,10.528-22.072,14.088-33.736c5.936,19.424,15.104,37.792,27.232,54.28C266.536,454.704,257.424,456,248,456   c-9.368,0-18.424-1.28-27.136-3.464c2.16-2.928,4.232-5.928,6.2-8.976L213.64,434.864z M251.712,312.976L248,316.688l-3.712-3.712   C233.112,301.8,226.272,287.472,224.504,272h47C269.728,287.472,262.888,301.8,251.712,312.976z M96,134.952l20.28,13.52   l3.312-9.944c4.4-13.208,7.088-26.84,8.032-40.672l7.136,10.704l6.896-6.904c13.552-13.552,22.248-30.664,25.208-49.224   c5.848,9.352,9.08,19.92,9.136,30.56c0,21.184-9.224,41.232-25.312,55.016l-3.6,3.088c-15.176,13.008-24.624,31.232-26.656,50.896   H96V134.952z M123.056,208l21.768,43.536C144.328,255.632,144,259.776,144,264v5.504c-0.328,0.456-0.616,0.928-0.936,1.392   l-0.44-0.184c-25.848-11.08-43.344-35.168-46.208-62.704h26.64V208z M56,305.352c0,17.064-2.728,33.952-8,50.024V336H27.888   C30.592,327.656,32,318.88,32,310.112V304c0-14.88,10.216-27.424,24-30.992V305.352z M72,299.056V272h24   c16.24,0,29.92,12.416,31.72,28.424c-2.752,7.592-4.752,15.448-6.024,23.48L72,299.056z M96,404.92   c0,16.336-7,31.344-18.736,41.688c6.368-23.784,7.672-48.896,3.832-73.208L96,368.432V400v2.664V404.92z M112,397.256v-27.64   l12.76,8.504c4.28,15.432,11.368,29.656,20.704,42.168C132.456,415.976,120.744,408.056,112,397.256z M251.648,480h-7.296   c-25.488,0-49.352-10.904-66.208-28.88C198.256,464.28,222.232,472,248,472s49.744-7.72,69.856-20.88   C301.008,469.096,277.136,480,251.648,480z M414.904,373.4c-3.84,24.312-2.536,49.424,3.832,73.208   C407,436.264,400,421.256,400,404.92v-2.248V400v-31.568L414.904,373.4z M384,369.616v27.64   c-8.744,10.8-20.456,18.72-33.464,23.032c9.336-12.512,16.424-26.736,20.704-42.168L384,369.616z M368.28,300.416   C370.08,284.408,383.76,272,400,272h24v27.056l-49.688,24.848C373.04,315.872,371.032,308.016,368.28,300.416z M448,336v19.376   c-5.272-16.072-8-32.96-8-50.024v-32.336c13.784,3.56,24,16.104,24,30.992v6.112c0,8.768,1.408,17.536,4.112,25.888H448V336z" data-original="#3F3A34" class="" data-old_color="#3F3A34"/>
</g></g> </svg>
